<svg width="16px" height="16px" viewBox="0 0 20.48 20.48" class="icon" version="1.1" xmlns="http://www.w3.org/2000/svg"><path d="M0.69 10.1a9.514 9.514 0 1 0 19.028 0A9.514 9.514 0 1 0 0.69 10.1Z" fill="#FCD170"/><path d="M0.394 15.1a3.158 3.158 0 1 0 6.316 0 3.158 3.158 0 1 0 -6.316 0Z" fill="#60C13D"/><path d="M3.552 18.458C1.7 18.458 0.194 16.952 0.194 15.1S1.7 11.744 3.552 11.744 6.91 13.25 6.91 15.1s-1.506 3.358 -3.358 3.358zm0 -6.314C1.92 12.144 0.594 13.47 0.594 15.1s1.326 2.958 2.958 2.958S6.51 16.732 6.51 15.1s-1.328 -2.956 -2.958 -2.956z" fill=""/><path d="M13.7 15.1a3.158 3.158 0 1 0 6.316 0 3.158 3.158 0 1 0 -6.316 0Z" fill="#60C13D"/><path d="M16.858 18.458c-1.852 0 -3.358 -1.506 -3.358 -3.358s1.506 -3.358 3.358 -3.358 3.358 1.506 3.358 3.358 -1.506 3.358 -3.358 3.358zm0 -6.314C15.226 12.144 13.9 13.47 13.9 15.1s1.326 2.958 2.958 2.958 2.958 -1.326 2.958 -2.958 -1.328 -2.956 -2.958 -2.956zM3.552 15.3c-0.024 0 -0.048 -0.004 -0.072 -0.014 -0.102 -0.04 -0.154 -0.156 -0.114 -0.258l3.802 -9.794c0.03 -0.076 0.104 -0.128 0.186 -0.128h2.02c0.11 0 0.2 0.09 0.2 0.2s-0.09 0.2 -0.2 0.2H7.49l-3.752 9.668a0.199 0.199 0 0 1 -0.186 0.126z" fill=""/><path d="M12.068 15.834c-0.046 0 -0.09 -0.016 -0.126 -0.046l-6.616 -5.43c-0.066 -0.054 -0.09 -0.142 -0.062 -0.222s0.104 -0.132 0.188 -0.132h7.738c0.064 0 0.122 0.03 0.16 0.08l3.668 4.896c0.042 0.058 0.052 0.134 0.024 0.2 -0.028 0.066 -0.09 0.112 -0.162 0.12l-4.79 0.534h-0.022zm-6.056 -5.43 6.118 5.022 4.358 -0.486 -3.398 -4.536H6.012zm9.648 -2.426h-4.04c-0.11 0 -0.2 -0.09 -0.2 -0.2s0.09 -0.2 0.2 -0.2h4.04c0.11 0 0.2 0.09 0.2 0.2s-0.09 0.2 -0.2 0.2z" fill=""/><path d="M12.068 15.834a0.2 0.2 0 0 1 -0.196 -0.24l1.632 -7.858a0.2 0.2 0 0 1 0.236 -0.156c0.108 0.022 0.178 0.128 0.156 0.236l-1.632 7.858c-0.02 0.096 -0.102 0.16 -0.196 0.16z" fill=""/></svg>